<?xml version="1.0" encoding="utf-8"?>
<!-- Generator: Adobe Illustrator 27.0.0, SVG Export Plug-In . SVG Version: 6.00 Build 0)  -->
<svg version="1.1" id="Layer_1" xmlns="http://www.w3.org/2000/svg" xmlns:xlink="http://www.w3.org/1999/xlink" x="0px" y="0px"
	 viewBox="0 0 20 20" style="enable-background:new 0 0 20 20;" xml:space="preserve">
<style type="text/css">
	.st0{fill:#F99C2C;}
	.st1{fill:#F8ED2F;}
	.st2{fill:#3AAACF;}
	.st3{fill:#428BC1;}
	.st4{fill:#C5D0D8;}
	.st5{fill:#DAE3EA;}
	.st6{fill:#CA4747;}
	.st7{fill:#F15845;}
	.st8{fill:#3F4347;}
	.st9{fill:#62727B;}
	.st10{fill:#EEF4F9;}
	.st11{fill:#FFFFFF;}
</style>
<g>
	<g>
		<g>
			<path class="st0" d="M3.36,15.65c1.24-1.24,1.36-1.53,2.12-0.77c0.76,0.76,0.47,0.88-0.77,2.12c-0.92,0.92-2.09,0.75-2.09,0.75
				S2.44,16.57,3.36,15.65z"/>
			<path class="st0" d="M5.72,16.92c0.48-1.29,0.64-1.46-0.06-1.85c-0.7-0.39-0.7-0.13-1.18,1.17c-0.36,0.96,0.07,1.83,0.07,1.83
				S5.36,17.88,5.72,16.92z"/>
			<path class="st1" d="M5,15.71c0.27-0.72,0.27-0.86,0.65-0.65c0.39,0.22,0.3,0.31,0.03,1.03c-0.2,0.54-0.65,0.63-0.65,0.63
				S4.81,16.25,5,15.71z"/>
			<path class="st0" d="M5.29,14.7c-0.39-0.7-0.56-0.54-1.85-0.06C2.48,15,2.3,15.81,2.3,15.81s0.86,0.43,1.83,0.07
				C5.42,15.4,5.68,15.4,5.29,14.7z"/>
			<path class="st1" d="M4.64,15.35c0.72-0.27,0.86-0.27,0.65-0.65c-0.22-0.39-0.31-0.3-1.03-0.03c-0.53,0.2-0.63,0.65-0.63,0.65
				S4.11,15.55,4.64,15.35z"/>
			<path class="st1" d="M4.31,15.3c0.69-0.69,0.75-0.85,1.18-0.43c0.42,0.42,0.26,0.49-0.43,1.18c-0.51,0.51-1.16,0.42-1.16,0.42
				S3.8,15.82,4.31,15.3z"/>
			<path class="st2" d="M5.72,12.34c-1.93-3.22-5.1-1.89-5.1-1.89s4.54-4.54,7.6-1.49L5.72,12.34z"/>
			<path class="st3" d="M7.21,9.96l1-1c-3.05-3.05-7.6,1.49-7.6,1.49S4.6,7.59,7.21,9.96z"/>
			<path class="st2" d="M8.02,14.64c3.22,1.93,1.89,5.1,1.89,5.1s4.54-4.54,1.49-7.6L8.02,14.64z"/>
			<path class="st3" d="M10.4,13.15l1-1c3.05,3.05-1.49,7.6-1.49,7.6S12.77,15.76,10.4,13.15z"/>
			<path class="st4" d="M15.07,10.13c-3.59,3.59-7.6,5.52-8.98,4.14c-1.38-1.38,0.55-5.39,4.14-8.98c4.19-4.19,8.87-4.03,8.87-4.03
				S19.26,5.94,15.07,10.13z"/>
			<path class="st5" d="M14.16,9.11c-3.59,3.59-7.18,5.94-8.01,5.11c-0.83-0.83,1.52-4.42,5.11-8.01c4.19-4.19,7.9-5,7.9-5
				S18.35,4.92,14.16,9.11z"/>
			<path class="st6" d="M7.51,15.25c-0.15,0.16-0.39,0.17-0.55,0.01l-1.85-1.85C4.96,13.26,4.95,13,5.11,12.84l0.56-0.56l2.41,2.41
				L7.51,15.25z"/>
			<path class="st7" d="M6.98,14.72c-0.15,0.15-0.34,0.22-0.43,0.13l-1.04-1.04c-0.09-0.09-0.04-0.29,0.12-0.44l0.56-0.56l1.35,1.35
				L6.98,14.72z"/>
			<path class="st8" d="M6.45,15.48c-0.1,0.1-0.29,0.1-0.39,0l-1.2-1.2c-0.1-0.1-0.07-0.26,0.03-0.36l0.36-0.36l1.57,1.57
				L6.45,15.48z"/>
			<path class="st9" d="M6.21,15.24c-0.1,0.1-0.26,0.13-0.33,0.06l-0.84-0.84c-0.07-0.07-0.02-0.21,0.08-0.31l0.36-0.36l1.09,1.09
				L6.21,15.24z"/>
			<path class="st6" d="M19.1,1.26c0,0-1.68-0.06-3.93,0.8l3.13,3.13C19.16,2.94,19.1,1.26,19.1,1.26z"/>
			<path class="st7" d="M19.1,1.26c0,0-1.34,0.28-3.32,1.41l1.92,1.92C18.82,2.61,19.1,1.26,19.1,1.26z"/>
			<circle class="st10" cx="13.43" cy="6.93" r="1.55"/>
			<circle class="st2" cx="13.43" cy="6.93" r="1.03"/>
			<circle class="st10" cx="10.34" cy="10.02" r="1.55"/>
			<circle class="st2" cx="10.34" cy="10.02" r="1.03"/>
			<path class="st11" d="M15.09,2.72c-0.1,0.1-0.26,0.1-0.36,0c-0.1-0.1-0.1-0.26,0-0.36c0.1-0.1,0.26-0.1,0.36,0
				C15.19,2.45,15.19,2.62,15.09,2.72z"/>
			<circle class="st11" cx="15.64" cy="3.26" r="0.26"/>
			<circle class="st11" cx="16.37" cy="3.99" r="0.26"/>
			<circle class="st11" cx="17.09" cy="4.72" r="0.26"/>
			<circle class="st11" cx="17.82" cy="5.45" r="0.26"/>
		</g>
	</g>
</g>
</svg>
